<svg width="400" height="238" xmlns="http://www.w3.org/2000/svg" version="1.1">

 <g>
  <title>Lam</title>
  <g id="svg_1">
   <path id="svg_2" d="m32.53958,33.16734l0,0.00391c-3.8242,3.8242 -1.8945,9.957 7.3672,23.438c5.4375,7.918 11.938,15.996 14.02,18.074l50.902,50.902c2.7734,2.7734 6.418,4.1641 10.062,4.1641s7.2891,-1.3867 10.062,-4.1602c2.6836,-2.6836 4.1562,-6.2539 4.1562,-10.066s-1.4766,-7.3828 -4.1562,-10.062l-50.902,-50.906c-2.0781,-2.082 -10.152,-8.5781 -18.074,-14.02c-13.488,-9.2656 -19.625,-11.195 -23.438,-7.3672l0.0008,-0.00061zm34.812,28.082l50.906,50.906c0.89453,0.89062 1.3828,2.0859 1.3828,3.3633c0,1.2773 -0.48828,2.4727 -1.3828,3.3672c-1.8594,1.8555 -4.875,1.8555 -6.7344,0l-50.906,-50.898c-3.3711,-3.3711 -13.395,-16.684 -18.031,-24.77c8.0898,4.6367 21.395,14.66 24.766,18.031l-0.0006,0.0005z"/>
   <path id="svg_3" d="m97.56958,73.66734c1.0859,1.0859 2.4648,1.5938 3.8203,1.5938c2.25,0 4.4531,-1.3906 5.207,-3.8242l7.3086,-47.691c0.59766,-1.9258 0.07813,-4.0234 -1.3477,-5.4492l-13.953,-13.953c-1.0859,-1.0859 -2.4648,-1.5938 -3.8203,-1.5938c-2.25,0 -4.4531,1.3906 -5.207,3.8281l-13.012,41.988c-0.59766,1.9258 -0.07812,4.0234 1.3477,5.4492l19.6564,19.6521zm-0.92188,-57.891l7.7188,7.7188l-5.793,37.785l-12.238,-12.238l10.3122,-33.2658z"/>
   <path id="svg_4" d="m49.36958,77.12734c-0.53516,0 -1.0781,0.07813 -1.6055,0.24219l-41.988,13.016c-3.9062,1.2109 -5.125,6.1367 -2.2344,9.0273l13.953,13.953c1.0352,1.0352 2.4219,1.5898 3.8398,1.5898c0.53516,0 1.0781,-0.07812 1.6055,-0.24219l47.691,-7.3086c3.9062,-1.2109 5.125,-6.1367 2.2344,-9.0273l-19.656,-19.656c-1.0312,-1.0352 -2.418,-1.5938 -3.8398,-1.5938l0,-0.0004zm-26.68,28.043l-7.7188,-7.7188l33.266,-10.309l12.238,12.238l-37.7852,5.7898z"/>
   <path id="svg_5" d="m8.13958,38.65734l6.5742,1.7383c0.92188,0.24219 1.8594,0.36328 2.793,0.36328c2.8594,0 5.6484,-1.125 7.7227,-3.1992l10.898,-10.898c2.75,-2.75 3.832,-6.7539 2.8359,-10.516l-1.7383,-6.5742c-1.3594,-5.1484 -5.9258,-8.1406 -10.605,-8.1406c-2.7227,0 -5.4883,1.0156 -7.6797,3.207l-15.734,15.734c-5.957,5.957 -3.2148,16.133 4.9336,18.285l-0.0004,0.00042zm1.7617,-11.586l15.73,-15.73c0.30078,-0.30078 0.60156,-0.43359 0.98438,-0.43359c0.19531,0 1.1719,0.05469 1.4453,1.0898l1.7383,6.5742c0.13281,0.49609 -0.01172,1.0352 -0.375,1.3984l-10.898,10.898c-0.27344,0.27344 -0.64062,0.42578 -1.0273,0.42578c-0.125,0 -0.25,-0.01563 -0.37109,-0.04688l-6.5742,-1.73829c-0.19922,-0.05469 -0.8125,-0.21484 -1.0312,-1.02731c-0.21484,-0.81641 0.23438,-1.2656 0.37891,-1.41019l-0.0001,0.00008z"/>
   <path id="svg_6" d="m311.10958,72.99734c-9.2617,13.48 -11.191,19.617 -7.3672,23.441c1.2148,1.2188 2.668,1.8516 4.5195,1.8516c3.9531,0 9.7305,-2.9062 18.922,-9.2188c7.9258,-5.4453 15.996,-11.941 18.074,-14.02l50.906,-50.902c5.5508,-5.5508 5.5508,-14.578 0,-20.133c-5.3711,-5.3594 -14.773,-5.3516 -20.129,0.00391l-50.91,50.898c-2.082,2.082 -8.5781,10.156 -14.016,18.078l0.0007,0.00129zm71.617,-62.285c0.89453,-0.89453 2.0859,-1.3828 3.3672,-1.3828c1.2773,0 2.4727,0.49219 3.3672,1.3828c1.8555,1.8555 1.8555,4.8789 0,6.7344l-50.91,50.906c-3.3633,3.3711 -16.672,13.395 -24.762,18.031c4.6406,-8.0859 14.66,-21.398 18.031,-24.77l50.9066,-50.9014z"/>
   <path id="svg_7" d="m277.14958,39.39734l41.988,13.012c0.52734,0.16406 1.0703,0.24219 1.6055,0.24219c1.418,0 2.8086,-0.55859 3.8398,-1.5898l19.656,-19.656c2.8906,-2.8906 1.6719,-7.8203 -2.2344,-9.0273l-47.691,-7.3086c-0.52734,-0.16406 -1.0703,-0.24219 -1.6055,-0.24219c-1.418,0 -2.8086,0.55859 -3.8398,1.5898l-13.953,13.953c-2.8906,2.8906 -1.6719,7.8164 2.2344,9.0273l0,-0.0004zm16.918,-14.785l37.785,5.793l-12.234,12.238l-33.266,-10.309l7.715,-7.722z"/>
   <path id="svg_8" d="m372.75958,54.51734c-1.3594,0 -2.7344,0.50391 -3.8203,1.5938l-19.656,19.656c-1.4258,1.4258 -1.9453,3.5234 -1.3477,5.4492l13.012,41.988c0.75391,2.4375 2.957,3.8281 5.207,3.8281c1.3555,0 2.7344,-0.50781 3.8203,-1.5938l13.953,-13.953c1.4258,-1.4258 1.9453,-3.5234 1.3477,-5.4492l-7.3125,-47.691c-0.75391,-2.4375 -2.9531,-3.8281 -5.2031,-3.8281l-0.0004,0zm-4.7461,59.484l-10.309,-33.266l12.234,-12.234l5.793,37.785l-7.718,7.715z"/>
   <path id="svg_9" d="m290.93958,125.77734c2.1914,2.1914 4.957,3.207 7.6797,3.207c4.6797,0 9.2422,-2.9922 10.605,-8.1367l1.7383,-6.5742c0.99609,-3.7617 -0.08594,-7.7656 -2.8359,-10.516l-10.898,-10.898c-2.0742,-2.0742 -4.8633,-3.1992 -7.7227,-3.1992c-0.92969,0 -1.8672,0.11719 -2.793,0.36328l-6.5742,1.7383c-8.1445,2.1523 -10.891,12.328 -4.9336,18.285l15.7344,15.73052zm-8.3789,-24.859l6.5742,-1.7383c0.12109,-0.03125 0.24609,-0.04687 0.37109,-0.04687c0.38672,0 0.75391,0.15234 1.0273,0.42577l10.898,10.89801c0.36328,0.36327 0.50781,0.89844 0.375,1.3984l-1.7383,6.5742c-0.27344,1.03519 -1.2539,1.0859 -1.4492,1.0859c-0.38281,0 -0.68359,-0.13282 -0.98438,-0.43359l-15.73,-15.73c-0.14844,-0.14844 -0.59375,-0.59375 -0.375,-1.40621s0.83203,-0.97656 1.0312,-1.0273l0.00009,-0.00001z"/>
   <path id="svg_10" d="m201.39958,237.75734c13.059,0 23.688,-10.629 23.688,-23.691s-10.629,-23.688 -23.688,-23.688c-13.059,0 -23.688,10.625 -23.688,23.688s10.629,23.691 23.688,23.691zm0,-37.906c7.8398,0 14.215,6.375 14.215,14.215c0,7.8398 -6.3789,14.219 -14.215,14.219c-7.8398,0 -14.215,-6.3789 -14.215,-14.219c0,-7.8398 6.375,-14.215 14.215,-14.215z"/>
   <path id="svg_11" d="m139.84958,145.80734c0.92578,0.92578 2.1367,1.3867 3.3477,1.3867c1.2109,0 2.4219,-0.46094 3.3477,-1.3867c1.8516,-1.8516 1.8516,-4.8477 0,-6.6953l-3.3477,-3.3477c-1.8516,-1.8516 -4.8477,-1.8516 -6.6953,0c-1.8516,1.8516 -1.8516,4.8477 0,6.6953l3.3476,3.3477z"/>
   <path id="svg_12" d="m157.02958,162.98734c0.92578,0.92578 2.1367,1.3867 3.3477,1.3867c1.2109,0 2.4219,-0.46094 3.3477,-1.3867c1.8516,-1.8516 1.8516,-4.8477 0,-6.6953l-6.8711,-6.8711c-1.8516,-1.8516 -4.8477,-1.8516 -6.6953,0c-1.8516,1.8516 -1.8516,4.8477 0,6.6953l6.871,6.8711z"/>
   <path id="svg_13" d="m170.67958,176.64734c0.92578,0.92578 2.1367,1.3867 3.3477,1.3867c1.2109,0 2.4219,-0.46094 3.3477,-1.3867c1.8516,-1.8516 1.8516,-4.8477 0,-6.6953l-3.3477,-3.3477c-1.8516,-1.8516 -4.8477,-1.8516 -6.6953,0c-1.8516,1.8516 -1.8516,4.8477 0,6.6953l3.3476,3.3477z"/>
   <path id="svg_14" d="m260.65958,147.19734c1.2109,0 2.4219,-0.46094 3.3477,-1.3867l3.3477,-3.3477c1.8516,-1.8516 1.8516,-4.8477 0,-6.6953c-1.8516,-1.8516 -4.8477,-1.8516 -6.6953,0l-3.3477,3.3477c-1.8516,1.8516 -1.8516,4.8477 0,6.6953c0.92578,0.92578 2.1367,1.3867 3.3477,1.3867l-0.0001,0z"/>
   <path id="svg_15" d="m243.47958,164.37734c1.2109,0 2.4219,-0.46094 3.3477,-1.3867l6.8711,-6.8711c1.8516,-1.8516 1.8516,-4.8477 0,-6.6953c-1.8516,-1.8516 -4.8477,-1.8516 -6.6953,0l-6.8711,6.8711c-1.8516,1.8516 -1.8516,4.8477 0,6.6953c0.92188,0.92578 2.1328,1.3867 3.3477,1.3867l-0.0001,0z"/>
   <path id="svg_16" d="m229.82958,178.03734c1.2109,0 2.4219,-0.46094 3.3477,-1.3867l3.3477,-3.3477c1.8516,-1.8516 1.8516,-4.8477 0,-6.6953c-1.8516,-1.8516 -4.8477,-1.8516 -6.6953,0l-3.3477,3.3477c-1.8516,1.8516 -1.8516,4.8477 0,6.6953c0.92188,0.92188 2.1328,1.3867 3.3477,1.3867l-0.0001,0z"/>
  </g>
 </g>
</svg>