<svg id="Layer_1" data-name="Layer 1" xmlns="http://www.w3.org/2000/svg" viewBox="0 0 178.27 23.58"><defs><style>.cls-1,.cls-2,.cls-3{fill:none;}.cls-2,.cls-3{stroke:#000;stroke-miterlimit:10;stroke-width:2px;}.cls-3{stroke-dasharray:4.95 4.95;}</style></defs><title>onetoanother</title><path d="M183.13,41.64c-.22-.31-.44-.59-.65-.88a33.24,33.24,0,0,1-2.51-4,6.67,6.67,0,0,1-.77-2.06,3.6,3.6,0,0,1,.68-2.71,4,4,0,0,1,4.17-1.58,4,4,0,0,1,3,3.26,3.76,3.76,0,0,1-.32,2.09,17.61,17.61,0,0,1-1.63,3c-.61.93-1.27,1.84-1.9,2.76Zm0-9.29a1.93,1.93,0,1,0,1.92,1.93A1.93,1.93,0,0,0,183.14,32.35Z" transform="translate(-8.85 -25.4)"/><path d="M16.36,48.2a.7.7,0,0,0,.47-.28c.13-.13,1.68-1.85,3.44-3.81a2.74,2.74,0,0,0,.65.06,2,2,0,0,0,.72-.09c.14,0,.12-.12.12-.12v-.59s0-.08-.12-.12a1.78,1.78,0,0,0-.53-.08l1.24-1.39.34-.37a2.83,2.83,0,0,0,.63.05,2.05,2.05,0,0,0,.72-.08c.14-.05.13-.12.13-.12v-.59s0-.08-.13-.12a1.68,1.68,0,0,0-.51-.08L25.2,38.6a2.31,2.31,0,0,0,.83-.14h2.34c.55,0,2.12-.34,2.12-1.08s-1.57-1.09-2.12-1.09H26a2.31,2.31,0,0,0-.83-.14l-1.67-1.87a2.19,2.19,0,0,0,.51-.07c.14-.05.13-.13.13-.13v-.59s0-.07-.13-.12a2.05,2.05,0,0,0-.72-.08,2.83,2.83,0,0,0-.63.05L22.35,33l-1.24-1.39a1.78,1.78,0,0,0,.53-.08c.14,0,.12-.12.12-.12v-.59s0-.07-.12-.12a2.05,2.05,0,0,0-.72-.08,2.91,2.91,0,0,0-.65.05c-1.76-2-3.31-3.68-3.44-3.81a.7.7,0,0,0-.47-.28h-.65c-.12,0-.07.06-.07.06l.47.78,1.4,2.47c-.12,0-.25,0-.25.07s.18.05.33.07l.8,1.41c-.11,0-.21,0-.21.06s.14.05.27.06l.43.75c-.09,0-.16,0-.16.06s.1,0,.22,0l.51.9c-.09,0-.15,0-.15.05s.09,0,.21,0l.43.78c-.14,0-.36,0-.36.08s.29.06.44.07l.57,1.83h-.91a3.18,3.18,0,0,0-1,.14H16.49a11,11,0,0,0-1.89.2l-2.85-2.58H10.68l.26.35,1.84,2.42h0l.14.18a10.12,10.12,0,0,0-1.28.42v0l-.46.05.46,0v0a10.12,10.12,0,0,0,1.28.42l-.14.18h0L11,40.45l-.29.39h1.07l2.85-2.58a10.06,10.06,0,0,0,1.89.2h2.19a3.14,3.14,0,0,0,1,.15h.91L20,40.43c-.15,0-.44,0-.44.07s.22.07.36.08l-.43.78c-.12,0-.21,0-.21,0s.06,0,.15.05l-.51.9c-.12,0-.22,0-.22.06s.07,0,.16,0l-.43.75c-.13,0-.27,0-.27.06s.1,0,.21.06l-.8,1.42c-.15,0-.33,0-.33.06s.13,0,.25.07l-1.4,2.47-.47.78s-.05.06.07.06Z" transform="translate(-8.85 -25.4)"/><rect class="cls-1" width="22.84" height="23.58"/><line x1="17.13" y1="11.95" x2="175.55" y2="11.95"/><line class="cls-2" x1="17.13" y1="11.95" x2="19.63" y2="11.95"/><line class="cls-3" x1="24.58" y1="11.95" x2="170.57" y2="11.95"/><line class="cls-2" x1="173.05" y1="11.95" x2="175.55" y2="11.95"/></svg>